# xmcd CD database file
#
# Track frame offsets:
#	150
#	11465
#	20186
#	31589
#	42322
#	53065
#	64597
#	76072
#	87160
#	98518
#	110287
#	121361
#	131238
#	142851
#	155351
#
# Disc length: 2211 seconds
#
# Revision: 0
# Processed by: cddbd v1.5.2PL0 Copyright (c) Steve Scherf et al.
# Submitted via: CDex 1.77
#
DISCID=af08a10f
DTITLE=Patsy Cline - Queens of Country Music - Disc 2
DYEAR=1900
DGENRE=Country
TTITLE0=Walkin' After Midnight
TTITLE1=Come On In
TTITLE2=Crazy Dreams
TTITLE3=Honky Tonk Merry-Go-Round
TTITLE4=I Cried All The Way To The Altar
TTITLE5=I've Loved And Lost Again
TTITLE6=Let The Teardrops Fall
TTITLE7=Stop, Look And Listen
TTITLE8=The Heart You Break May Be Your Own
TTITLE9=Today, Tomorrow and Forever
TTITLE10=A Stranger In My Arms
TTITLE11=Turn The Cards Slowly
TTITLE12=Cry Not For Me
TTITLE13=Fingerprints
TTITLE14=I Can See An Angel
EXTD=
EXTT0=
EXTT1=
EXTT2=
EXTT3=
EXTT4=
EXTT5=
EXTT6=
EXTT7=
EXTT8=
EXTT9=
EXTT10=
EXTT11=
EXTT12=
EXTT13=
EXTT14=
PLAYORDER=
